<?xml version="1.0" standalone="no"?>
<!DOCTYPE svg PUBLIC "-//W3C//DTD SVG 20010904//EN"
 "http://www.w3.org/TR/2001/REC-SVG-20010904/DTD/svg10.dtd">
<svg version="1.0" xmlns="http://www.w3.org/2000/svg"
 width="750.000000pt" height="750.000000pt" viewBox="0 0 750.000000 750.000000"
 preserveAspectRatio="xMidYMid meet">
<metadata>
Created by potrace 1.14, written by Peter Selinger 2001-2017
</metadata>
<g transform="translate(0.000000,750.000000) scale(0.100000,-0.100000)"
fill="#000000" stroke="none">
<path d="M930 5235 c-250 -44 -391 -192 -427 -448 -3 -23 -6 -232 -7 -466 -2
-275 -6 -435 -13 -451 -25 -58 -75 -80 -183 -81 l-76 -1 -1 -179 0 -179 81 0
c96 0 141 -18 171 -70 19 -34 20 -52 21 -460 1 -234 4 -443 7 -465 31 -242
156 -389 380 -446 62 -16 117 -21 232 -22 l150 -2 0 175 0 175 -75 3 c-137 5
-226 72 -246 185 -4 23 -8 218 -9 432 -1 215 -5 413 -10 440 -16 100 -72 176
-158 215 l-37 17 41 18 c45 21 103 74 123 114 35 69 39 123 41 536 1 359 4
417 19 465 35 112 109 157 259 159 l57 1 0 175 0 176 -137 -2 c-76 -1 -167 -7
-203 -14z"/>
<path d="M6230 5076 l0 -176 58 -1 c31 -1 60 -1 64 0 3 0 29 -6 56 -14 73 -22
125 -78 150 -160 3 -11 7 -207 8 -435 2 -231 8 -436 14 -462 22 -104 61 -157
149 -203 l35 -18 -40 -19 c-81 -41 -123 -99 -143 -199 -8 -36 -12 -198 -13
-460 0 -357 -3 -410 -18 -457 -34 -102 -112 -150 -244 -153 l-76 -1 0 -173 c0
-129 3 -174 13 -177 27 -10 286 1 354 16 97 20 195 70 259 132 70 69 111 150
140 279 3 17 8 231 9 477 3 439 4 448 25 486 31 54 72 72 170 72 l80 0 0 180
0 180 -83 0 c-101 0 -143 19 -171 76 -17 35 -18 73 -21 479 -1 270 -6 459 -13
490 -36 167 -121 282 -257 349 -92 45 -159 57 -337 63 l-168 6 0 -177z"/>
<path d="M1628 4883 c-3 -5 -4 -579 -3 -1278 l1 -1270 215 -1 215 -2 0 242 0
241 89 86 c114 110 206 197 221 210 9 7 47 -34 135 -143 68 -84 163 -202 213
-263 49 -60 136 -169 195 -242 l106 -132 258 1 c142 0 257 4 255 8 -3 8 -657
844 -683 874 -6 6 -41 51 -79 100 l-69 88 384 384 c211 211 379 384 374 385
-6 0 -122 1 -258 1 l-248 1 -42 -40 c-23 -22 -105 -97 -182 -168 -77 -71 -160
-148 -185 -171 -102 -95 -121 -113 -220 -204 -57 -52 -138 -127 -179 -167 -65
-61 -77 -69 -81 -52 -3 11 -5 357 -4 770 l0 749 -212 0 c-117 0 -214 -3 -216
-7z"/>
<path d="M3864 4738 c-3 -5 -7 -1954 -4 -2355 l0 -53 658 2 c785 1 839 5 1032
69 323 106 481 345 446 674 -22 208 -145 379 -338 472 -42 21 -77 41 -78 44 0
3 12 12 28 20 15 8 33 19 39 26 7 6 23 20 36 30 48 39 142 170 152 213 1 3 9
31 19 64 23 74 27 231 9 310 -44 192 -194 347 -406 420 -89 31 -188 52 -283
62 -92 9 -1304 11 -1310 2z m1166 -352 c252 -19 392 -131 393 -316 0 -101 -14
-148 -64 -204 -55 -63 -180 -119 -294 -131 -63 -7 -745 -8 -751 -2 -10 10 -6
650 4 656 11 7 613 5 712 -3z m190 -1019 c14 -4 39 -10 55 -13 55 -12 150 -61
188 -97 76 -73 105 -201 73 -321 -29 -107 -105 -176 -237 -216 -98 -30 -152
-33 -581 -34 l-408 -2 -1 111 c0 60 -1 217 -2 348 l-2 239 445 -5 c245 -2 456
-7 470 -10z"/>
</g>
</svg>
